<svg xmlns="http://www.w3.org/2000/svg" width="202.013" height="38.414" viewBox="0 0 202.013 38.414">
  <g id="wp-engine-1" transform="translate(-0.1)">
    <path id="Path_21833" data-name="Path 21833" d="M13.131,38.414H25.483v-9.34l-3.013-3.013h-6.4l-2.938,3.013ZM29.1,13.031l-2.938,2.938v6.478L29.1,25.383h9.415V13.031ZM25.483,0H13.131V9.415l2.938,2.938h6.4l3.013-2.938ZM38.514,38.414v-9.34l-2.938-3.013H26.161V38.414ZM3.038,0,.1,2.938v9.415H12.453V0ZM26.161,0V9.415L29.1,12.353h9.415V0ZM19.307,21.015a1.732,1.732,0,1,1,1.732-1.732A1.752,1.752,0,0,1,19.307,21.015Zm-6.854-7.984H.1V25.383H9.44l3.013-2.938Zm0,16.044L9.44,26.061H.1V38.414H9.44l3.013-2.938Z" transform="translate(0)" fill="#40bac8"/>
    <path id="Path_21834" data-name="Path 21834" d="M80.869,29.839c-.226,0-.3-.075-.377-.3L77.4,18.616h-.075L74.241,29.538c-.075.226-.151.3-.377.3H70.249c-.226,0-.3-.075-.377-.3L64.6,10.557c0-.151,0-.3.226-.3h4.745a.345.345,0,0,1,.377.3L72.433,21.93h.075l3.013-11.374c.075-.226.151-.3.377-.3h2.938c.226,0,.3.075.377.3L82.376,21.93h.075l2.41-11.374a.345.345,0,0,1,.377-.3h4.745c.151,0,.226.151.226.3L84.937,29.538c-.075.226-.151.3-.377.3H80.869Zm13.106,0a.324.324,0,0,1-.3-.3V10.557a.324.324,0,0,1,.3-.3h7.833c4.745,0,7.231,2.712,7.231,6.478s-2.486,6.553-7.231,6.553H98.947c-.151,0-.151.075-.151.151v6.026a.324.324,0,0,1-.3.3H93.975Zm10.018-13.031c0-1.356-.9-2.184-2.486-2.184H98.947c-.151,0-.151.075-.151.151v4.067c0,.151.075.151.151.151h2.561a2.188,2.188,0,0,0,2.486-2.184Zm11.75,8.21a14.454,14.454,0,0,1-.527-4.9,17.143,17.143,0,0,1,.527-4.9,6.828,6.828,0,0,1,12.955,0,13.268,13.268,0,0,1,.527,4.595c0,.226-.151.377-.452.377H116.5c-.151,0-.226.151-.226.3a13.6,13.6,0,0,0,.452,4.143,5.427,5.427,0,0,0,5.649,3.992A6.755,6.755,0,0,0,127.946,26a.323.323,0,0,1,.527-.075l.226.226a.323.323,0,0,1,.075.527,7.533,7.533,0,0,1-6.327,3.088,6.457,6.457,0,0,1-6.7-4.745Zm12.2-5.875a.2.2,0,0,0,.226-.226,10.18,10.18,0,0,0-.452-3.239,5.33,5.33,0,0,0-5.423-3.992,5.253,5.253,0,0,0-5.423,3.992,9.862,9.862,0,0,0-.452,3.239.2.2,0,0,0,.226.226ZM146.7,29.387a.356.356,0,0,1-.377-.377v-11c0-4.369-1.808-6.252-5.348-6.252a5.435,5.435,0,0,0-5.649,5.724v11.6a.356.356,0,0,1-.377.377h-.377a.356.356,0,0,1-.377-.377V11.461a.356.356,0,0,1,.377-.377h.377a.356.356,0,0,1,.377.377v2.561h.075a5.856,5.856,0,0,1,5.649-3.389c4.143,0,6.478,2.335,6.478,7.08v11.3a.356.356,0,0,1-.377.377Zm6.327,4.745c-.151-.226-.151-.452.075-.527l.3-.226c.226-.151.377-.075.527.151a5.836,5.836,0,0,0,4.9,2.184c3.465,0,5.724-1.732,5.724-6.252V26.374h-.075c-.9,2.034-2.486,3.465-5.724,3.465a6.049,6.049,0,0,1-6.1-4.369,16.071,16.071,0,0,1-.6-5.2,18.5,18.5,0,0,1,.6-5.2,6.049,6.049,0,0,1,6.1-4.369c3.239,0,4.821,1.431,5.724,3.465h.075V11.536a.356.356,0,0,1,.377-.377h.377a.356.356,0,0,1,.377.377v18c0,5.047-2.712,7.306-6.93,7.306A7.085,7.085,0,0,1,153.028,34.133Zm11-9.114a15.114,15.114,0,0,0,.527-4.821,15.422,15.422,0,0,0-.527-4.821,4.989,4.989,0,0,0-5.122-3.691,4.884,4.884,0,0,0-5.047,3.615,15.661,15.661,0,0,0-.6,4.821,15.661,15.661,0,0,0,.6,4.821,4.941,4.941,0,0,0,5.047,3.615A4.664,4.664,0,0,0,164.025,25.019ZM172.009,5.36a.356.356,0,0,1-.377-.377V3.477a.356.356,0,0,1,.377-.377h.9a.356.356,0,0,1,.377.377V5.058a.356.356,0,0,1-.377.377h-.9Zm.3,24.028a.356.356,0,0,1-.377-.377V11.461a.356.356,0,0,1,.377-.377h.377a.356.356,0,0,1,.377.377v17.55a.356.356,0,0,1-.377.377h-.377Zm19.508,0a.356.356,0,0,1-.377-.377v-11c0-4.369-1.808-6.252-5.348-6.252a5.435,5.435,0,0,0-5.649,5.724v11.6a.356.356,0,0,1-.377.377h-.377a.356.356,0,0,1-.377-.377V11.461a.356.356,0,0,1,.377-.377h.377a.356.356,0,0,1,.377.377v2.561h.075a5.856,5.856,0,0,1,5.649-3.389c4.143,0,6.478,2.335,6.478,7.08v11.3a.356.356,0,0,1-.377.377h-.452Zm5.95-4.369a14.454,14.454,0,0,1-.527-4.9,17.144,17.144,0,0,1,.527-4.9,6.828,6.828,0,0,1,12.955,0,13.268,13.268,0,0,1,.527,4.595c0,.226-.151.377-.452.377H198.522c-.151,0-.226.151-.226.3a13.6,13.6,0,0,0,.452,4.143,5.427,5.427,0,0,0,5.649,3.992A6.755,6.755,0,0,0,209.971,26a.323.323,0,0,1,.527-.075l.226.226a.323.323,0,0,1,.075.527,7.533,7.533,0,0,1-6.327,3.088c-3.389,0-5.724-1.582-6.7-4.745ZM209.9,19.144a.2.2,0,0,0,.226-.226,10.18,10.18,0,0,0-.452-3.239,5.33,5.33,0,0,0-5.423-3.992,5.253,5.253,0,0,0-5.423,3.992,9.862,9.862,0,0,0-.452,3.239.2.2,0,0,0,.226.226Zm3.615-6.252a2.26,2.26,0,1,1,2.26,2.26A2.219,2.219,0,0,1,213.511,12.892Zm4.143,0a1.883,1.883,0,1,0-1.883,1.883A1.82,1.82,0,0,0,217.654,12.892Zm-2.636,1.28c-.075,0-.075,0-.075-.075V11.762c0-.075,0-.075.075-.075h.9a.734.734,0,0,1,.829.753.645.645,0,0,1-.527.678l.527.979c.075.075,0,.151-.075.151h-.226c-.075,0-.075-.075-.151-.075l-.527-.979h-.527v.9a.074.074,0,0,1-.075.075h-.151Zm1.356-1.808c0-.226-.151-.377-.452-.377h-.6v.753h.6C216.223,12.741,216.373,12.591,216.373,12.365Z" transform="translate(-15.918 -0.765)" fill="#162a33"/>
  </g>
</svg>
